<svg width="16" height="16" viewBox="0 0 16 16" fill="none" xmlns="http://www.w3.org/2000/svg">
<g id="Group">
<path id="Vector" d="M10.0662 0.870194C9.79702 0.594735 9.4755 0.375855 9.12054 0.226417C8.76558 0.0769797 8.38433 -9.53674e-07 7.99919 -9.53674e-07C7.61405 -9.53674e-07 7.2328 0.0769797 6.87784 0.226417C6.52287 0.375855 6.20136 0.594735 5.93219 0.870194L5.31019 1.50819L4.42019 1.49719C4.03494 1.49263 3.65267 1.56515 3.29585 1.71048C2.93903 1.85581 2.61488 2.07102 2.34245 2.34345C2.07002 2.61589 1.85481 2.94004 1.70948 3.29686C1.56415 3.65367 1.49163 4.03594 1.49619 4.42119L1.50619 5.31119L0.870188 5.93319C0.594729 6.20236 0.375849 6.52388 0.226411 6.87884C0.0769737 7.23381 -6.92904e-06 7.61506 -6.92904e-06 8.00019C-6.92904e-06 8.38533 0.0769737 8.76658 0.226411 9.12155C0.375849 9.47651 0.594729 9.79803 0.870188 10.0672L1.50719 10.6892L1.49619 11.5792C1.49163 11.9644 1.56415 12.3467 1.70948 12.7035C1.85481 13.0603 2.07002 13.3845 2.34245 13.6569C2.61488 13.9294 2.93903 14.1446 3.29585 14.2899C3.65267 14.4352 4.03494 14.5078 4.42019 14.5032L5.31019 14.4932L5.93219 15.1292C6.20136 15.4047 6.52287 15.6235 6.87784 15.773C7.2328 15.9224 7.61405 15.9994 7.99919 15.9994C8.38433 15.9994 8.76558 15.9224 9.12054 15.773C9.4755 15.6235 9.79702 15.4047 10.0662 15.1292L10.6882 14.4922L11.5782 14.5032C11.9634 14.5078 12.3457 14.4352 12.7025 14.2899C13.0593 14.1446 13.3835 13.9294 13.6559 13.6569C13.9284 13.3845 14.1436 13.0603 14.2889 12.7035C14.4342 12.3467 14.5067 11.9644 14.5022 11.5792L14.4922 10.6892L15.1282 10.0672C15.4036 9.79803 15.6225 9.47651 15.772 9.12155C15.9214 8.76658 15.9984 8.38533 15.9984 8.00019C15.9984 7.61506 15.9214 7.23381 15.772 6.87884C15.6225 6.52388 15.4036 6.20236 15.1282 5.93319L14.4912 5.31119L14.5022 4.42119C14.5067 4.03594 14.4342 3.65367 14.2889 3.29686C14.1436 2.94004 13.9284 2.61589 13.6559 2.34345C13.3835 2.07102 13.0593 1.85581 12.7025 1.71048C12.3457 1.56515 11.9634 1.49263 11.5782 1.49719L10.6882 1.50719L10.0662 0.870194ZM10.3532 6.85419L7.35319 9.85419C7.30674 9.90076 7.25157 9.9377 7.19082 9.96291C7.13008 9.98811 7.06496 10.0011 6.99919 10.0011C6.93342 10.0011 6.8683 9.98811 6.80755 9.96291C6.74681 9.9377 6.69163 9.90076 6.64519 9.85419L5.14519 8.35419C5.0987 8.30771 5.06182 8.25252 5.03666 8.19178C5.01151 8.13104 4.99856 8.06594 4.99856 8.00019C4.99856 7.93445 5.01151 7.86935 5.03666 7.80861C5.06182 7.74787 5.0987 7.69268 5.14519 7.64619C5.19168 7.59971 5.24686 7.56283 5.3076 7.53767C5.36834 7.51251 5.43344 7.49956 5.49919 7.49956C5.56493 7.49956 5.63003 7.51251 5.69077 7.53767C5.75151 7.56283 5.8067 7.59971 5.85319 7.64619L6.99919 8.79319L9.64519 6.14619C9.73907 6.05231 9.86641 5.99956 9.99919 5.99956C10.132 5.99956 10.2593 6.05231 10.3532 6.14619C10.4471 6.24008 10.4998 6.36742 10.4998 6.50019C10.4998 6.63297 10.4471 6.76031 10.3532 6.85419Z" fill="#0066FF"/>
</g>
</svg>
