<svg width="64" height="64" viewBox="0 0 64 64" fill="none" xmlns="http://www.w3.org/2000/svg">
<g id="bi:eye-fill">
<g id="Group">
<path id="Vector" d="M42 32C42 34.6522 40.9464 37.1957 39.0711 39.0711C37.1957 40.9464 34.6522 42 32 42C29.3478 42 26.8043 40.9464 24.9289 39.0711C23.0536 37.1957 22 34.6522 22 32C22 29.3478 23.0536 26.8043 24.9289 24.9289C26.8043 23.0536 29.3478 22 32 22C34.6522 22 37.1957 23.0536 39.0711 24.9289C40.9464 26.8043 42 29.3478 42 32V32Z" fill="#666666"/>
<path id="Vector_2" d="M0 32C0 32 12 10 32 10C52 10 64 32 64 32C64 32 52 54 32 54C12 54 0 32 0 32ZM32 46C35.713 46 39.274 44.525 41.8995 41.8995C44.525 39.274 46 35.713 46 32C46 28.287 44.525 24.726 41.8995 22.1005C39.274 19.475 35.713 18 32 18C28.287 18 24.726 19.475 22.1005 22.1005C19.475 24.726 18 28.287 18 32C18 35.713 19.475 39.274 22.1005 41.8995C24.726 44.525 28.287 46 32 46V46Z" fill="#666666"/>
</g>
</g>
</svg>
